<?xml version="1.0" standalone="no"?>
<!DOCTYPE svg PUBLIC "-//W3C//DTD SVG 20010904//EN"
 "http://www.w3.org/TR/2001/REC-SVG-20010904/DTD/svg10.dtd">
<svg version="1.0" xmlns="http://www.w3.org/2000/svg"
 width="718.000000pt" height="1280.000000pt" viewBox="0 0 718.000000 1280.000000"
 preserveAspectRatio="xMidYMid meet">
<metadata>
Created by potrace 1.15, written by Peter Selinger 2001-2017
</metadata>
<g transform="translate(0.000000,1280.000000) scale(0.100000,-0.100000)"
fill="#b8eef5" stroke="none">
<path d="M5672 12768 c-28 -45 -90 -103 -192 -178 -47 -35 -113 -93 -148 -128
l-63 -63 -92 21 c-129 30 -279 36 -397 16 -51 -9 -96 -18 -98 -20 -7 -8 36
-117 67 -168 18 -30 80 -105 138 -168 92 -101 183 -220 183 -239 0 -6 -579
-162 -1488 -401 -421 -110 -510 -130 -615 -140 -370 -32 -404 -38 -509 -91
-71 -36 -152 -114 -167 -161 -39 -121 -51 -315 -27 -440 43 -225 167 -380 501
-629 207 -154 363 -301 645 -609 339 -370 407 -458 490 -633 60 -126 79 -195
87 -316 l6 -94 -24 6 c-149 36 -641 44 -839 14 -452 -70 -846 -223 -1229 -479
-149 -101 -474 -343 -572 -428 -206 -179 -421 -407 -545 -580 -174 -241 -382
-642 -515 -993 -298 -786 -349 -1447 -144 -1857 36 -71 120 -190 134 -190 22
0 145 103 246 205 143 146 178 171 315 238 215 103 399 247 525 411 51 68 61
75 118 94 92 30 211 50 368 63 77 6 142 9 144 7 1 -1 8 -345 14 -763 7 -418
16 -1001 22 -1295 5 -294 10 -936 10 -1427 0 -965 3 -918 -53 -970 -12 -12
-59 -40 -103 -64 -108 -57 -135 -83 -135 -130 0 -21 4 -40 8 -43 5 -3 49 2 98
11 112 19 267 12 379 -17 44 -12 152 -48 239 -81 l160 -60 18 23 c30 39 23 67
-29 114 -26 24 -44 46 -40 50 4 4 46 15 94 25 71 15 93 24 114 48 l27 29 73
-29 c87 -34 91 -34 112 -11 30 33 21 67 -30 111 -30 27 -43 45 -37 51 6 6 46
17 90 25 75 15 123 37 132 63 2 6 -16 21 -40 33 -24 12 -74 43 -113 69 -149
101 -222 119 -330 82 -33 -11 -62 -19 -64 -17 -10 11 -22 417 -31 1090 -6 407
-12 767 -15 800 -30 348 -49 791 -50 1110 0 428 7 490 72 652 24 62 49 142 54
179 9 65 1 219 -20 367 l-8 57 91 59 c50 32 188 106 306 164 231 114 312 163
457 280 155 124 295 260 560 544 343 368 416 435 517 474 43 16 114 40 158 52
74 20 83 26 129 78 211 243 324 628 305 1045 -11 249 -60 513 -127 684 -16 41
-29 78 -29 82 0 4 34 -15 76 -43 106 -71 262 -143 379 -175 86 -23 120 -27
245 -27 176 -1 262 16 375 73 207 105 576 434 645 576 26 52 26 124 0 205 -10
35 -18 65 -16 66 2 2 28 -8 59 -21 85 -38 174 -58 263 -60 92 -1 99 2 137 72
79 145 73 345 -15 520 -32 65 -127 164 -166 174 -25 7 -62 -17 -62 -40 0 -9
-5 -34 -10 -54 -16 -55 -40 -57 -114 -9 -75 50 -153 78 -261 97 -43 8 -83 18
-87 22 -4 4 -43 145 -87 315 -94 356 -116 427 -262 836 -165 461 -223 665
-255 901 -17 130 -18 202 -2 218 9 9 9 12 -2 12 -11 0 -12 35 -6 198 8 234 -3
356 -43 474 -31 94 -48 106 -79 56z m-545 -1240 c-7 -143 -29 -244 -121 -562
-80 -273 -149 -534 -173 -646 -19 -92 -23 -249 -9 -319 l9 -44 -44 26 c-59 33
-130 47 -247 47 -156 0 -266 -40 -366 -131 -69 -63 -128 -148 -146 -213 -7
-25 -15 -46 -19 -46 -3 1 -39 41 -79 90 -64 78 -83 94 -160 136 -250 134 -462
329 -576 525 -25 44 -25 48 -12 85 7 22 31 73 51 114 21 41 55 115 75 164 l36
89 60 22 c32 12 142 63 244 113 102 49 316 150 475 223 816 373 981 447 994
448 11 1 13 -20 8 -121z m-2788 -6940 c1 -145 9 -654 18 -1133 9 -478 16
-1297 17 -1820 1 -939 1 -950 -19 -985 -12 -19 -43 -50 -70 -68 l-50 -34 -7
54 c-3 29 -11 394 -17 812 -10 687 -23 1062 -52 1431 -6 72 -13 299 -15 505
-8 505 2 589 92 800 39 90 44 241 15 470 -12 91 -21 179 -21 197 l0 33 54 0
55 0 0 -262z"/>
</g>
</svg>
