<?xml version="1.0" standalone="no"?>
<!DOCTYPE svg PUBLIC "-//W3C//DTD SVG 20010904//EN"
 "http://www.w3.org/TR/2001/REC-SVG-20010904/DTD/svg10.dtd">
<svg version="1.0" xmlns="http://www.w3.org/2000/svg"
 width="640.000000pt" height="1280.000000pt" viewBox="0 0 640.000000 1280.000000"
 preserveAspectRatio="xMidYMid meet">
<metadata>
Created by potrace 1.15, written by Peter Selinger 2001-2017
</metadata>
<g transform="translate(0.000000,1280.000000) scale(0.100000,-0.100000)"
fill="#dba4e5" stroke="none">
<path d="M3008 12787 c-147 -42 -291 -127 -320 -188 -24 -52 -41 -198 -36
-304 7 -109 26 -165 106 -309 70 -125 86 -183 86 -311 0 -107 -25 -201 -85
-316 -74 -142 -166 -224 -497 -443 -183 -121 -326 -252 -379 -346 -70 -123
-110 -287 -120 -493 -6 -129 -7 -138 -27 -142 -12 -2 -48 -9 -81 -16 -155 -29
-379 -100 -485 -154 -62 -32 -134 -85 -160 -118 -27 -34 -37 -91 -20 -112 10
-12 10 -15 -4 -15 -14 0 -16 -18 -16 -143 0 -79 -3 -212 -7 -294 l-6 -151 -28
-6 c-27 -5 -27 -6 -33 -108 -3 -57 -11 -271 -17 -476 -12 -362 -11 -373 7
-387 39 -29 232 -124 316 -156 49 -18 86 -34 83 -37 -2 -2 -19 1 -36 7 -28 9
-39 8 -73 -10 -149 -77 -283 -242 -416 -514 -178 -362 -250 -732 -221 -1135
17 -229 68 -582 126 -866 23 -111 74 -418 90 -534 33 -250 37 -330 32 -642 -6
-342 -13 -428 -87 -1028 -81 -657 -86 -702 -100 -1025 -27 -597 -3 -1123 59
-1325 18 -56 27 -70 68 -102 92 -69 195 -130 326 -193 411 -197 913 -314 1617
-377 193 -16 814 -17 985 0 829 83 1403 247 1876 538 l86 53 26 88 c61 205
113 436 149 663 21 130 23 179 23 460 -1 357 -6 424 -90 1095 -87 694 -105
905 -105 1220 0 314 23 521 119 1095 130 773 150 1015 111 1372 -41 364 -259
796 -514 1016 -73 63 -195 127 -227 119 -47 -12 0 10 66 32 39 13 126 50 194
83 l124 60 -7 381 c-3 210 -9 439 -13 509 l-6 127 -38 6 -39 7 0 360 0 360
-25 -4 c-14 -3 -25 -1 -25 3 0 5 -16 27 -35 48 -77 85 -365 191 -632 233 l-83
12 0 101 c0 182 -47 389 -111 490 -17 28 -60 77 -94 111 -59 56 -113 96 -405
294 -226 153 -338 297 -422 543 -27 78 -32 107 -32 192 l-1 100 57 120 c69
147 68 142 77 266 16 199 -19 391 -85 467 -93 109 -412 192 -566 149z m-1021
-5203 c-3 -3 -12 -4 -19 -1 -8 3 -5 6 6 6 11 1 17 -2 13 -5z m76 -11 c-7 -2
-21 -2 -30 0 -10 3 -4 5 12 5 17 0 24 -2 18 -5z m75 -10 c-10 -2 -26 -2 -35 0
-10 3 -2 5 17 5 19 0 27 -2 18 -5z m80 -10 c-10 -2 -26 -2 -35 0 -10 3 -2 5
17 5 19 0 27 -2 18 -5z m90 -10 c-10 -2 -26 -2 -35 0 -10 3 -2 5 17 5 19 0 27
-2 18 -5z m115 -10 c-7 -2 -21 -2 -30 0 -10 3 -4 5 12 5 17 0 24 -2 18 -5z"/>
</g>
</svg>
