<?xml version="1.0" standalone="no"?>
<!DOCTYPE svg PUBLIC "-//W3C//DTD SVG 20010904//EN"
 "http://www.w3.org/TR/2001/REC-SVG-20010904/DTD/svg10.dtd">
<svg version="1.0" xmlns="http://www.w3.org/2000/svg"
 width="1003.000000pt" height="1280.000000pt" viewBox="0 0 1003.000000 1280.000000"
 preserveAspectRatio="xMidYMid meet">
<metadata>
Created by potrace 1.15, written by Peter Selinger 2001-2017
</metadata>
<g transform="translate(0.000000,1280.000000) scale(0.100000,-0.100000)"
fill="#000000" stroke="none">
<path d="M6155 12794 c-105 -11 -238 -35 -316 -58 -444 -129 -982 -514 -1238
-886 -161 -234 -248 -508 -411 -1300 -85 -412 -114 -535 -174 -741 -135 -465
-316 -787 -615 -1092 -184 -188 -376 -335 -569 -436 -45 -23 -82 -44 -82 -47
0 -3 52 22 116 55 207 109 366 225 543 396 212 205 366 416 491 670 138 283
218 551 365 1220 156 711 250 999 395 1210 132 190 352 397 595 560 252 168
490 276 709 324 112 23 140 25 371 25 189 0 278 -4 365 -17 534 -82 949 -277
1264 -593 348 -349 505 -767 506 -1342 0 -179 -12 -289 -56 -517 -65 -333 -75
-359 -219 -551 -107 -141 -141 -202 -192 -343 -19 -53 -50 -126 -70 -163 -33
-63 -53 -86 -196 -214 -85 -77 -82 -61 -82 -470 0 -389 -1 -394 -52 -394 -14
0 -50 7 -80 16 -67 20 -93 15 -190 -33 -65 -32 -140 -93 -188 -152 -5 -7 -24
-21 -42 -31 -23 -14 -43 -41 -68 -93 -47 -101 -110 -168 -193 -209 -66 -33
-68 -33 -207 -33 -131 0 -146 2 -232 32 -50 18 -167 66 -260 108 -205 94 -309
125 -428 132 -151 8 -272 -32 -398 -132 -92 -73 -192 -225 -212 -320 -4 -16 5
-4 18 28 85 197 256 350 434 387 78 17 221 7 308 -20 39 -12 165 -66 280 -120
231 -108 304 -133 430 -152 150 -21 289 15 388 102 59 52 109 122 132 183 15
39 25 51 54 63 20 8 48 32 63 55 30 43 111 99 190 132 46 19 54 19 97 7 114
-33 181 -18 217 52 16 30 18 65 15 363 -3 399 -6 385 109 478 132 106 166 158
250 373 55 143 90 203 198 340 128 164 152 226 221 576 50 253 65 418 58 613
-19 456 -122 793 -335 1095 -83 118 -307 344 -421 424 -404 287 -864 431
-1411 440 -113 2 -223 2 -245 0z"/>
<path d="M3866 8753 c-130 -252 -289 -412 -533 -535 -121 -62 -227 -103 -548
-213 -401 -137 -603 -257 -864 -510 -552 -536 -876 -1238 -1100 -2385 -17 -85
-71 -398 -121 -695 -138 -832 -181 -1031 -350 -1625 -250 -880 -331 -1309
-347 -1835 -7 -231 5 -373 39 -484 108 -352 430 -515 913 -461 50 6 185 26
300 44 273 45 337 52 730 76 572 35 735 62 1430 230 278 67 581 136 720 164
414 82 824 123 1058 105 198 -15 306 -53 525 -183 265 -157 426 -218 717 -272
109 -20 164 -25 250 -22 132 4 170 19 230 95 48 61 86 84 191 117 137 44 164
69 195 183 24 87 57 120 182 186 181 94 216 156 187 331 -11 68 -32 97 -69 95
-25 -1 -24 -2 4 -8 38 -8 54 -50 54 -149 1 -126 -32 -168 -199 -252 -124 -62
-160 -97 -184 -178 -35 -115 -63 -140 -196 -177 -94 -25 -118 -39 -190 -115
-57 -59 -72 -69 -118 -79 -91 -19 -176 -10 -416 44 -219 49 -369 111 -589 244
-74 44 -172 99 -218 121 -167 80 -357 106 -648 90 -437 -25 -733 -75 -1576
-269 -724 -166 -782 -175 -1350 -206 -319 -18 -495 -35 -710 -69 -82 -14 -186
-30 -230 -37 -126 -20 -384 -18 -478 4 -170 40 -309 141 -372 271 -61 124 -68
166 -73 421 -10 556 66 999 338 1970 152 542 214 824 310 1425 81 502 144 872
181 1060 207 1051 543 1747 1089 2255 208 193 416 316 730 430 85 31 205 74
265 96 148 55 355 155 451 219 100 68 238 205 296 295 47 72 142 255 136 260
-2 2 -21 -30 -42 -72z"/>
<path d="M7756 7889 c107 -114 180 -239 267 -459 121 -309 333 -928 552 -1613
42 -132 78 -237 80 -235 6 6 -53 341 -85 483 -136 601 -405 1330 -595 1615
-65 98 -180 217 -246 254 -29 17 -25 10 27 -45z"/>
<path d="M6120 7423 c-205 -74 -315 -149 -392 -268 -76 -117 -96 -251 -53
-350 l18 -40 8 60 c22 178 109 305 335 491 113 93 134 114 113 113 -8 0 -21
-3 -29 -6z"/>
<path d="M5091 7324 c0 -11 3 -14 6 -6 3 7 2 16 -1 19 -3 4 -6 -2 -5 -13z"/>
<path d="M3640 7161 c0 -8 19 -13 230 -61 139 -32 413 -80 590 -105 248 -34
377 -67 485 -123 118 -62 215 -180 215 -262 0 -21 4 -29 11 -24 8 4 10 30 7
74 -6 85 -42 154 -119 230 -127 126 -312 189 -672 230 -300 34 -747 59 -747
41z"/>
<path d="M7290 6060 c108 -211 223 -521 285 -763 21 -81 42 -143 46 -136 15
25 20 161 9 255 -28 236 -126 451 -283 621 -22 24 -49 49 -59 54 -18 10 -18 8
2 -31z"/>
<path d="M8630 5423 c-126 -20 -258 -58 -416 -121 -188 -75 -231 -100 -277
-155 -127 -155 -185 -187 -357 -196 -58 -3 -111 -10 -118 -14 -26 -17 -44 -68
-37 -106 5 -33 3 -40 -19 -55 -43 -28 -59 -71 -53 -142 10 -109 -33 -228 -94
-259 -49 -26 -62 -55 -47 -109 10 -37 10 -55 -2 -93 -31 -110 -17 -169 50
-208 29 -17 51 -20 135 -19 62 1 117 8 145 18 36 13 39 15 13 11 -161 -23
-252 -13 -297 32 -32 32 -33 65 -4 155 19 57 20 75 11 109 -10 40 -10 40 27
59 74 38 130 165 130 296 0 91 13 106 66 75 l37 -22 -7 63 c-3 35 -9 78 -12
95 l-6 33 98 -2 c90 -1 107 2 183 32 87 34 147 83 226 183 23 29 53 48 135 83
152 66 352 131 454 149 358 62 740 -59 1015 -320 158 -151 267 -329 318 -522
35 -133 43 -346 19 -489 -44 -258 -166 -504 -334 -671 -41 -41 -64 -69 -52
-63 44 24 196 187 253 271 210 315 269 693 165 1054 -118 410 -528 760 -982
840 -81 14 -299 19 -366 8z"/>
<path d="M2811 4865 c-3 -110 -45 -204 -188 -421 -142 -213 -315 -492 -428
-689 -119 -206 -323 -601 -306 -590 18 11 162 207 284 387 145 213 310 476
445 712 175 306 213 400 211 527 -1 77 -16 139 -18 74z"/>
<path d="M5735 4822 c-4 -17 9 -55 44 -131 54 -113 113 -290 130 -387 61 -350
-33 -678 -271 -939 -65 -72 -51 -71 39 2 218 175 353 455 353 729 l0 64 68
-68 c183 -185 408 -273 670 -259 159 8 178 20 56 36 -263 35 -457 120 -622
276 -120 112 -194 215 -222 307 -41 137 -142 343 -186 379 -26 22 -52 18 -59
-9z"/>
<path d="M2652 4083 c-71 -258 -125 -528 -162 -802 -11 -84 -20 -172 -20 -195
1 -40 1 -40 14 -16 25 45 87 233 121 365 44 173 82 407 95 585 18 264 10 275
-48 63z"/>
<path d="M3735 3293 c-73 -6 -250 -42 -360 -73 -61 -17 -327 -103 -591 -190
-265 -87 -509 -164 -542 -170 -34 -7 -104 -10 -159 -8 -91 4 -106 8 -208 52
-203 89 -258 106 -345 106 -112 0 -160 -23 -197 -95 -21 -40 -31 -295 -13
-349 33 -100 141 -156 305 -156 110 0 175 -27 365 -154 140 -93 222 -125 322
-126 71 0 82 3 160 43 45 24 118 64 160 89 42 25 108 54 145 66 136 42 185 47
453 42 140 -2 343 -4 450 -4 178 0 200 2 252 23 31 12 67 31 80 41 18 15 13
14 -24 -5 -105 -52 -185 -54 -573 -14 -153 16 -241 20 -375 16 -249 -7 -270
-13 -593 -181 -126 -64 -210 -46 -410 88 -219 148 -244 159 -412 175 -199 18
-221 42 -212 228 3 67 11 131 16 142 25 45 139 40 264 -13 45 -18 120 -50 167
-70 178 -74 316 -71 575 13 50 16 259 89 465 161 682 240 778 264 1055 262
275 -1 576 -67 950 -207 81 -31 150 -54 152 -52 5 6 -179 87 -322 142 -390
151 -694 205 -1000 178z"/>
<path d="M9465 3245 c79 -222 100 -338 92 -504 -19 -382 -219 -641 -592 -767
l-70 -24 80 4 c307 17 565 233 652 546 25 92 25 348 0 440 -23 81 -106 255
-142 295 -19 22 -25 24 -20 10z"/>
<path d="M9119 3166 c-16 -16 -367 -94 -539 -120 -370 -56 -603 -50 -1158 28
-354 50 -476 59 -685 53 -242 -7 -402 -42 -550 -120 -70 -37 -100 -75 -101
-131 -1 -41 -1 -41 52 -59 99 -32 496 -146 500 -143 2 2 -102 45 -230 96 -305
121 -280 106 -235 145 42 37 148 74 292 102 70 14 136 17 300 17 215 -2 252
-5 840 -86 113 -15 209 -21 385 -22 257 -1 350 8 580 56 186 38 631 185 569
187 -9 1 -18 -1 -20 -3z"/>
<path d="M5070 2966 c0 -2 7 -7 16 -10 8 -3 12 -2 9 4 -6 10 -25 14 -25 6z"/>
<path d="M4790 2736 c-290 -99 -573 -255 -817 -451 -134 -107 -184 -194 -185
-321 0 -101 41 -228 96 -299 15 -18 15 -17 2 20 -42 126 -45 273 -8 357 11 26
40 66 64 90 89 89 437 323 769 518 232 136 235 139 79 86z"/>
<path d="M6945 2606 c-49 -13 -245 -77 -435 -141 -779 -264 -1031 -345 -1140
-370 -218 -48 -294 -79 -549 -224 -402 -228 -796 -321 -1360 -321 -341 0 -680
33 -1140 111 -353 59 -326 46 74 -36 478 -98 803 -136 1160 -137 541 -1 924
87 1303 299 239 134 297 157 527 213 153 37 393 112 880 275 369 123 698 230
731 239 34 9 96 16 137 16 183 0 277 -130 150 -210 -27 -18 -92 -40 -176 -60
-164 -41 -411 -122 -495 -163 -110 -54 -172 -146 -156 -232 25 -133 247 -250
634 -334 146 -31 194 -38 495 -71 422 -46 584 -83 774 -177 108 -53 171 -107
171 -146 0 -44 -36 -58 -183 -72 -100 -9 -116 -13 -67 -13 99 -2 212 15 240
36 126 94 -194 295 -600 376 -69 14 -228 39 -355 56 -278 37 -351 50 -521 94
-302 79 -504 189 -504 276 0 40 38 86 97 118 76 40 270 104 466 153 88 22 180
50 205 63 181 93 175 277 -12 373 -44 23 -65 27 -156 30 -86 3 -121 -1 -195
-21z"/>
<path d="M1530 2312 c-106 -52 -82 -222 43 -308 26 -18 84 -47 130 -64 179
-67 262 -106 373 -172 64 -38 118 -67 121 -65 9 9 -97 125 -158 174 -83 65
-152 104 -269 148 -141 55 -188 83 -216 130 -34 58 -32 97 7 129 17 14 43 26
57 26 21 0 24 2 12 10 -23 15 -61 12 -100 -8z"/>
<path d="M8846 2089 c-151 -183 -369 -387 -594 -554 -66 -49 -119 -91 -118
-93 5 -4 105 37 179 74 211 106 424 308 531 504 35 65 69 140 63 140 -2 0 -29
-32 -61 -71z"/>
<path d="M2759 2111 c13 -24 111 -113 168 -152 168 -116 430 -183 622 -159 45
6 91 14 103 19 19 7 13 10 -37 20 -332 67 -532 131 -768 247 -50 24 -92 44
-94 44 -2 0 1 -8 6 -19z"/>
</g>
</svg>
