<?xml version="1.0" standalone="no"?>
<!DOCTYPE svg PUBLIC "-//W3C//DTD SVG 20010904//EN"
 "http://www.w3.org/TR/2001/REC-SVG-20010904/DTD/svg10.dtd">
<svg version="1.0" xmlns="http://www.w3.org/2000/svg"
 width="1242.000000pt" height="1280.000000pt" viewBox="0 0 1242.000000 1280.000000"
 preserveAspectRatio="xMidYMid meet">
<metadata>
Created by potrace 1.15, written by Peter Selinger 2001-2017
</metadata>
<g transform="translate(0.000000,1280.000000) scale(0.100000,-0.100000)"
fill="#c79605" stroke="none">
<path d="M8433 12758 c8 -23 -16 -29 -44 -10 -21 14 -22 14 -16 -1 5 -13 1
-16 -16 -13 -12 2 -32 -4 -45 -12 -17 -11 -25 -12 -36 -3 -11 10 -16 8 -21 -9
-5 -16 -10 -18 -20 -10 -8 7 -15 7 -19 1 -4 -6 -19 -6 -42 0 -30 9 -37 7 -52
-11 -16 -20 -19 -20 -31 -6 -10 12 -18 13 -32 5 -13 -7 -26 -6 -41 2 -18 10
-24 8 -34 -6 -12 -17 -15 -17 -38 -2 -23 16 -25 16 -31 -3 -4 -11 -18 -23 -33
-26 -15 -3 -32 -7 -39 -9 -7 -2 -15 0 -18 5 -3 5 -43 8 -88 7 -77 -2 -107 -12
-107 -35 0 -5 -11 -7 -25 -4 -13 2 -33 1 -42 -3 -10 -4 -31 -7 -47 -6 -16 2
-26 -1 -22 -7 3 -5 -10 -13 -29 -16 -19 -4 -47 -18 -63 -31 -18 -15 -40 -23
-60 -23 -21 1 -38 -6 -47 -18 -11 -15 -15 -16 -15 -4 0 12 -4 10 -15 -4 -11
-14 -15 -16 -15 -5 -1 10 -4 9 -14 -4 -8 -10 -18 -18 -23 -18 -4 1 -15 -5 -23
-12 -19 -16 -52 -31 -62 -29 -5 1 -8 -3 -8 -9 0 -5 -4 -8 -10 -4 -8 5 -29 -9
-64 -41 -6 -6 -17 -9 -24 -6 -6 2 -12 -3 -12 -12 0 -9 -7 -16 -16 -16 -8 0
-13 -4 -10 -8 9 -15 -29 -38 -87 -51 -43 -9 -57 -16 -53 -27 4 -11 -1 -13 -22
-8 -15 4 -24 3 -20 -1 8 -9 -16 -35 -32 -35 -6 0 -8 -4 -5 -10 3 -5 -3 -10
-13 -10 -11 0 -22 -7 -26 -15 -3 -8 -18 -15 -32 -15 -15 0 -25 -3 -21 -6 10
-10 -20 -34 -43 -34 -13 0 -18 -4 -15 -11 4 -6 -2 -17 -14 -25 -12 -9 -19 -20
-16 -25 4 -5 3 -9 -2 -9 -4 0 -14 -14 -22 -31 -8 -18 -22 -34 -33 -37 -11 -3
-17 -10 -14 -18 3 -9 -10 -22 -34 -36 -22 -13 -40 -26 -40 -29 0 -7 -69 -79
-76 -79 -14 0 -80 -80 -82 -100 -4 -31 -40 -63 -61 -55 -8 3 -12 3 -9 -1 7 -6
-15 -34 -27 -34 -10 0 -35 -27 -35 -39 0 -5 -9 -13 -20 -16 -11 -3 -21 -14
-22 -23 0 -9 -2 -23 -2 -31 -1 -8 -11 -17 -24 -22 -12 -5 -22 -15 -22 -22 0
-8 -11 -19 -24 -25 -17 -8 -23 -17 -19 -30 3 -14 -1 -22 -15 -26 -13 -4 -19
-16 -20 -37 -1 -35 -17 -57 -48 -69 -16 -7 -21 -15 -17 -29 5 -19 -4 -26 -29
-22 -5 0 -8 -12 -8 -29 0 -21 -5 -30 -16 -30 -11 0 -14 -6 -9 -21 8 -23 -28
-65 -45 -54 -6 4 -10 -9 -10 -29 0 -20 -5 -36 -11 -36 -6 0 -8 -9 -4 -20 4
-14 2 -20 -9 -20 -11 0 -14 -11 -13 -49 2 -52 -14 -81 -44 -81 -16 0 -17 -4
-9 -26 13 -34 13 -34 -11 -34 -17 0 -20 -4 -15 -24 4 -15 0 -28 -10 -37 -10
-8 -13 -21 -9 -36 4 -18 1 -23 -15 -23 -11 0 -20 -6 -20 -12 0 -9 -4 -8 -10 2
-8 11 -9 8 -4 -12 6 -26 -21 -88 -38 -88 -4 0 -8 -11 -8 -24 0 -17 -10 -31
-29 -42 -27 -16 -59 -71 -67 -117 -9 -55 -18 -81 -35 -98 -11 -11 -19 -28 -19
-40 0 -11 -9 -34 -20 -49 -13 -18 -17 -31 -10 -35 6 -4 8 -10 5 -15 -3 -5 -1
-11 5 -15 5 -3 10 -10 10 -14 0 -14 -57 -71 -70 -71 -9 0 -7 -5 6 -15 18 -14
18 -14 1 -15 -10 0 -17 -6 -15 -12 3 -7 -4 -21 -14 -32 -11 -13 -16 -29 -13
-47 3 -16 -1 -31 -10 -39 -8 -7 -15 -18 -15 -25 0 -6 -9 -20 -19 -29 -17 -15
-18 -21 -8 -38 10 -16 9 -21 -5 -29 -12 -7 -15 -18 -11 -42 4 -25 -1 -38 -22
-61 -18 -19 -25 -37 -22 -52 2 -13 1 -21 -3 -19 -12 8 -31 -21 -24 -38 3 -8 1
-18 -5 -22 -6 -3 -11 -19 -11 -36 0 -18 -5 -29 -14 -29 -7 0 -16 -12 -19 -27
-3 -16 -11 -41 -18 -58 -7 -16 -13 -41 -14 -55 -3 -48 -26 -101 -43 -98 -12 2
-17 -5 -17 -25 -1 -16 -6 -31 -12 -35 -6 -4 -22 -32 -37 -64 -15 -31 -33 -59
-42 -62 -8 -3 -20 -19 -25 -36 -6 -16 -15 -30 -20 -30 -5 0 -9 -7 -9 -16 0 -9
-6 -14 -12 -12 -7 3 -17 -4 -23 -15 -5 -11 -24 -27 -42 -36 -17 -9 -36 -26
-42 -38 -6 -13 -15 -23 -20 -23 -6 0 -23 -21 -38 -47 -28 -49 -47 -73 -58 -73
-10 0 -55 -48 -55 -60 0 -5 -4 -10 -10 -10 -5 0 -10 -7 -10 -15 0 -8 -4 -15
-10 -15 -5 0 -10 -9 -10 -19 0 -11 -5 -23 -10 -26 -6 -4 -8 -11 -5 -16 4 -5
-6 -9 -20 -9 -17 0 -24 -4 -19 -12 5 -8 2 -9 -10 -5 -14 6 -17 3 -12 -9 4 -11
1 -14 -12 -10 -11 4 -23 -2 -32 -14 -8 -11 -20 -20 -28 -20 -7 0 -11 -4 -8 -9
3 -5 -1 -11 -9 -15 -8 -3 -15 -12 -15 -21 0 -8 -7 -15 -15 -15 -8 0 -24 -9
-35 -20 -11 -11 -26 -20 -34 -20 -7 0 -16 -9 -19 -20 -3 -13 -14 -20 -30 -20
-20 0 -24 -4 -20 -20 3 -12 0 -20 -6 -20 -7 0 -9 -4 -6 -10 3 -5 -6 -21 -21
-35 -21 -19 -28 -35 -27 -60 1 -19 -2 -35 -6 -35 -4 0 -7 -12 -6 -27 0 -25
-14 -38 -115 -105 -192 -129 -378 -213 -603 -272 -139 -36 -231 -53 -467 -85
-118 -16 -323 -52 -455 -81 -132 -28 -323 -68 -425 -90 -102 -21 -222 -52
-267 -70 -164 -63 -329 -180 -453 -320 -167 -190 -258 -382 -344 -726 -54
-216 -124 -417 -215 -614 -64 -138 -71 -149 -147 -222 -43 -42 -116 -107 -161
-145 -45 -38 -117 -114 -161 -169 -69 -87 -90 -125 -154 -270 -63 -142 -74
-176 -70 -210 3 -29 -5 -68 -27 -130 -28 -83 -31 -112 -10 -99 5 4 9 0 9 -8 0
-19 49 -59 62 -51 7 5 9 -2 6 -19 -6 -30 -9 -31 105 36 133 78 335 332 428
538 45 100 54 130 74 264 35 228 42 250 110 385 127 252 199 437 265 689 66
253 134 404 251 563 163 219 448 388 655 388 82 0 120 -13 130 -44 4 -12 7
-118 6 -236 -1 -156 3 -237 15 -295 8 -44 64 -229 123 -411 120 -368 136 -439
126 -558 -15 -176 -46 -278 -195 -636 -175 -418 -206 -477 -363 -686 -54 -73
-108 -153 -119 -180 -29 -65 -22 -132 30 -267 22 -59 59 -154 81 -212 65 -169
103 -316 229 -883 182 -813 199 -932 162 -1080 -11 -43 -29 -100 -40 -127 -11
-28 -25 -69 -31 -93 -8 -33 -19 -48 -46 -64 -19 -11 -34 -24 -34 -29 0 -5 -6
-9 -14 -9 -7 0 -20 -7 -27 -17 -13 -15 -12 -15 10 -3 21 11 23 10 18 -3 -4
-11 -2 -14 9 -10 26 10 15 -4 -26 -32 -22 -15 -40 -32 -40 -38 0 -5 7 -4 15 3
20 16 19 6 -1 -25 -18 -27 -4 -35 16 -10 7 9 15 13 18 10 3 -2 -7 -14 -22 -26
-26 -21 -30 -39 -5 -23 7 4 23 8 36 9 21 1 22 -1 8 -22 -14 -20 -13 -22 1 -16
14 5 15 3 5 -15 -12 -22 1 -32 14 -12 14 22 20 8 16 -36 -2 -32 0 -44 8 -40 6
4 11 3 11 -3 0 -16 42 -51 53 -44 6 4 8 0 4 -10 -4 -11 -1 -17 8 -17 13 0 60
85 57 102 -1 4 5 5 14 1 13 -5 12 -9 -5 -27 -21 -22 -28 -46 -13 -46 10 0 47
59 44 71 -1 6 1 8 6 5 5 -3 19 6 32 19 l23 25 37 -28 c55 -40 89 -85 113 -149
19 -53 21 -79 21 -283 l1 -225 42 -77 42 -78 -22 -47 c-16 -37 -22 -73 -25
-156 -5 -126 2 -140 77 -156 76 -16 501 -33 732 -29 188 3 217 5 242 22 50 34
31 88 -88 241 -153 196 -285 325 -335 325 -14 0 -16 9 -12 53 8 103 -67 262
-253 537 -117 174 -135 212 -160 350 -9 47 -38 153 -65 236 -61 185 -96 338
-194 829 -112 567 -158 860 -171 1100 -6 98 -3 143 14 245 11 69 25 197 31
285 15 239 55 379 168 580 58 103 146 229 150 216 2 -6 -6 -75 -18 -153 -54
-366 -77 -461 -162 -663 -105 -248 -105 -247 102 -569 45 -70 115 -196 155
-280 80 -165 477 -1078 531 -1220 71 -184 96 -332 75 -431 -5 -22 -12 -65 -15
-96 -6 -47 -11 -58 -37 -73 -16 -9 -46 -34 -67 -54 -20 -19 -28 -28 -16 -19
11 9 23 17 27 17 11 0 -5 -33 -27 -59 -12 -13 -15 -21 -9 -17 17 9 17 -16 1
-32 -16 -16 4 -16 22 0 8 7 4 1 -9 -15 -14 -15 -19 -27 -13 -27 6 0 13 4 16 9
3 5 17 11 30 13 22 5 24 3 15 -15 -8 -15 -8 -18 1 -12 9 5 10 1 5 -14 -7 -23
4 -28 24 -9 11 11 13 7 8 -19 -4 -20 -2 -33 4 -33 6 0 8 -4 5 -9 -8 -12 21
-34 34 -26 5 3 10 1 10 -5 0 -6 5 -8 10 -5 5 3 10 -1 10 -9 0 -28 17 -17 35
24 10 22 22 40 27 40 13 0 10 -10 -12 -37 -11 -14 -20 -33 -20 -41 0 -13 3
-12 16 4 15 18 15 18 10 -11 -5 -25 -4 -27 5 -12 6 10 8 25 5 34 -4 10 11 36
41 71 l47 55 48 -52 c26 -28 52 -68 58 -89 21 -73 23 -177 5 -296 -28 -191
-15 -282 61 -398 17 -26 17 -29 0 -64 -21 -45 -41 -200 -32 -249 10 -52 37
-65 167 -75 140 -12 675 -12 784 -1 79 9 81 8 150 -26 136 -69 174 -73 195
-23 13 31 9 79 -21 265 -37 226 -84 369 -130 398 -18 11 -18 12 1 32 53 56 73
305 46 571 -22 224 -21 295 8 374 13 36 42 117 65 180 46 130 88 214 168 345
90 144 86 147 79 -55 -7 -214 -23 -280 -98 -416 -30 -54 -60 -116 -67 -136
-10 -31 -18 -38 -47 -44 -19 -3 -36 -10 -39 -14 -3 -5 4 -6 15 -3 38 10 14
-38 -30 -60 -14 -7 -25 -20 -25 -29 0 -9 -4 -20 -8 -24 -15 -16 -6 -24 16 -14
17 8 15 5 -8 -15 -24 -22 -26 -26 -9 -21 32 10 56 -3 49 -25 -4 -11 -3 -19 2
-18 23 4 31 -4 30 -34 -2 -49 22 -100 44 -94 13 4 16 0 11 -12 -5 -14 -4 -14
11 -2 15 12 17 11 17 -5 1 -13 8 -6 21 19 11 20 21 37 23 37 5 0 -10 -65 -18
-79 -4 -6 -5 -11 -2 -11 9 0 36 57 30 63 -10 9 15 44 35 50 19 5 127 -53 208
-112 79 -58 126 -191 142 -398 8 -112 12 -128 46 -197 l38 -75 -17 -43 c-12
-29 -20 -81 -23 -154 -6 -135 1 -147 94 -161 81 -11 881 -9 917 3 50 17 55 37
23 97 -34 64 -224 304 -302 380 -31 31 -75 63 -98 72 l-42 16 -1 57 c-2 129
-84 260 -309 491 -90 92 -172 185 -183 208 -12 22 -37 94 -58 159 -31 104 -37
136 -41 249 -3 72 2 228 11 350 8 121 20 335 27 475 l11 255 36 60 c106 178
292 445 348 500 33 33 91 89 128 125 80 77 128 166 147 271 18 100 2 184 -61
323 -36 78 -55 138 -70 215 -30 161 -167 1139 -180 1281 -12 146 -3 283 36
527 41 259 54 381 54 503 0 112 1 117 26 141 44 41 121 151 147 209 40 92 50
153 44 269 -6 119 -19 167 -124 451 -185 498 -217 862 -128 1450 84 555 337
1190 689 1725 156 236 291 382 501 541 286 216 652 357 1023 395 154 15 394 6
514 -19 86 -19 88 -20 190 -107 126 -107 162 -146 193 -207 31 -58 31 -87 3
-185 -32 -110 -32 -283 0 -366 32 -85 66 -149 147 -277 109 -173 109 -172 109
-275 0 -123 -26 -211 -129 -425 -46 -96 -96 -212 -112 -257 -15 -46 -31 -83
-35 -83 -4 0 -19 22 -32 48 -37 74 -40 75 -126 41 -41 -16 -79 -35 -85 -42 -5
-8 -27 -19 -47 -26 -51 -17 -49 -36 10 -108 27 -32 63 -80 81 -106 l32 -48
-44 -49 c-48 -53 -72 -120 -61 -168 3 -15 17 -62 30 -105 31 -100 30 -136 -6
-346 -32 -184 -46 -245 -86 -381 -25 -80 -30 -88 -104 -161 -61 -60 -83 -90
-100 -135 -28 -74 -31 -147 -8 -195 25 -51 41 -136 35 -177 -4 -19 -2 -43 4
-53 14 -27 65 -24 105 6 28 21 37 24 54 15 42 -23 134 17 202 87 42 44 61 83
78 168 25 121 104 259 177 307 21 14 76 37 123 53 202 66 267 113 311 224 31
76 48 101 70 101 23 0 39 -24 78 -116 94 -220 152 -574 136 -824 -16 -253 -55
-431 -146 -667 -187 -482 -271 -855 -319 -1408 -44 -515 -69 -661 -152 -914
-55 -167 -62 -195 -62 -271 -1 -79 2 -91 37 -165 31 -64 42 -102 53 -187 18
-133 31 -169 147 -400 111 -219 115 -235 198 -703 53 -304 62 -370 65 -499 3
-168 12 -215 61 -335 27 -64 55 -185 125 -535 91 -449 91 -452 92 -606 1 -85
-2 -171 -7 -191 -4 -20 -41 -92 -82 -160 -76 -126 -135 -258 -135 -304 0 -18
-8 -28 -33 -38 -61 -26 -257 -257 -257 -304 0 -18 33 -31 103 -38 40 -5 57
-11 57 -21 0 -29 55 -37 268 -42 252 -5 356 2 381 27 17 17 18 17 27 -3 15
-33 58 -38 294 -32 227 6 335 17 354 36 14 14 10 133 -6 176 -10 30 -9 38 15
82 25 47 27 58 28 188 0 80 6 153 12 172 14 37 62 92 82 92 7 0 15 5 17 11 2
6 12 0 23 -13 11 -13 13 -17 5 -10 -27 23 -31 12 -7 -20 13 -18 22 -40 20 -49
-2 -10 3 -16 14 -16 25 0 44 17 60 54 7 18 18 33 23 33 6 0 10 9 10 20 0 11 6
19 12 18 22 -5 21 43 -1 59 -25 17 -28 38 -3 29 10 -4 6 4 -11 19 -23 21 -30
39 -43 117 -25 145 -16 182 184 698 144 374 174 440 265 594 95 160 97 172 31
307 -59 121 -78 171 -108 294 -70 280 -98 485 -84 603 8 72 30 121 116 267 66
113 105 203 127 296 16 71 20 207 6 255 -5 17 -12 58 -16 90 -9 84 3 96 144
144 151 52 232 99 317 184 197 197 206 439 23 627 -71 73 -159 111 -259 111
-68 0 -87 -4 -176 -43 -54 -23 -136 -70 -182 -103 -75 -55 -88 -70 -129 -144
l-45 -83 1 -126 c2 -139 4 -143 74 -233 36 -47 49 -55 80 -58 36 -3 37 -3 44
40 7 41 7 42 13 13 4 -20 9 4 14 70 6 83 60 349 95 472 25 88 93 132 202 133
118 0 222 -70 287 -195 22 -42 26 -64 26 -135 1 -75 -3 -93 -30 -151 -45 -94
-123 -168 -238 -224 -151 -75 -260 -83 -464 -36 -70 16 -206 41 -303 55 -285
42 -440 95 -619 210 -77 50 -79 53 -85 101 -3 24 -17 50 -40 73 -19 20 -35 40
-35 45 0 4 -5 7 -11 7 -6 0 -23 11 -37 25 -46 42 -87 75 -93 75 -4 0 -18 17
-31 38 -14 20 -62 74 -106 119 -85 87 -125 146 -137 201 -4 17 -11 32 -15 32
-5 0 -9 24 -9 53 0 28 -4 77 -10 107 -5 30 -7 59 -4 63 3 4 0 13 -6 20 -6 8
-7 26 -2 47 4 19 4 47 0 62 -4 16 -4 30 -1 32 9 5 7 54 -2 83 -4 13 -4 28 1
35 16 26 31 78 23 83 -5 3 -2 18 6 35 10 20 13 47 10 85 -6 61 10 155 26 155
6 0 8 7 5 15 -4 8 -2 17 2 20 5 3 7 15 4 27 -4 12 0 25 9 32 19 14 49 76 42
87 -2 5 2 19 10 31 8 13 17 40 19 60 2 21 9 44 15 51 21 25 70 185 65 211 -3
14 0 33 7 41 11 14 50 154 50 182 0 8 11 38 25 65 30 59 48 168 39 239 -4 32
-2 54 6 64 8 9 12 71 13 192 1 202 -5 280 -26 320 -8 15 -20 60 -26 98 -7 39
-15 81 -18 95 -3 14 -8 63 -12 110 -4 47 -15 99 -24 117 -9 18 -17 38 -17 46
0 18 -28 75 -41 82 -5 4 -9 20 -9 36 0 17 -13 61 -29 97 -33 79 -43 106 -39
108 2 1 -4 10 -13 20 -9 11 -19 34 -23 52 -3 19 -15 46 -26 62 -11 15 -20 37
-20 48 0 11 -18 38 -40 61 -22 22 -40 45 -40 49 0 20 -27 62 -47 73 -13 7 -23
18 -23 25 0 6 -11 19 -25 28 -14 9 -25 23 -25 31 0 8 -7 15 -15 15 -16 0 -38
34 -28 44 3 3 -3 6 -15 6 -13 0 -22 6 -22 16 0 8 -5 12 -10 9 -6 -4 -17 -2
-24 4 -8 7 -19 10 -26 9 -7 -2 -14 2 -16 8 -3 6 19 26 48 44 76 50 180 152
210 207 43 79 52 158 34 317 -14 133 -14 140 5 204 33 106 166 369 306 602
213 355 237 384 401 480 120 69 161 105 197 171 29 53 30 58 30 192 l0 137 35
10 c19 6 98 21 174 35 148 26 183 43 166 76 -17 31 -12 49 13 49 24 0 83 25
91 39 6 9 -36 125 -64 181 -11 22 -29 44 -40 50 -11 6 -17 16 -14 22 11 17
-79 2 -124 -21 -20 -10 -91 -32 -157 -49 -174 -44 -185 -45 -192 -24 -28 81
-70 167 -93 192 -23 25 -36 30 -73 30 -55 0 -116 -21 -179 -61 -35 -23 -55
-29 -73 -25 -14 4 -25 11 -25 16 0 6 -11 10 -24 10 -32 0 -57 10 -51 20 3 5
-12 14 -32 20 -21 7 -42 16 -48 20 -5 3 -23 5 -40 3 -48 -5 -75 5 -75 28 0 11
-4 17 -10 14 -6 -4 -17 -1 -25 5 -8 6 -19 9 -25 5 -7 -4 -14 2 -17 13 -5 19
-25 24 -39 9 -13 -13 -34 -7 -34 9 0 9 -5 12 -12 8 -6 -4 -17 1 -24 10 -9 13
-17 15 -30 8 -13 -7 -22 -6 -32 5 -13 12 -17 12 -31 -1 -20 -18 -41 -21 -64
-11 -11 4 -23 3 -29 -3 -6 -6 -18 -8 -27 -3 -20 9 -199 7 -223 -3 -9 -4 -29
-1 -47 8 -16 9 -39 16 -50 16 -10 0 -21 5 -23 12 -3 8 -11 7 -27 -4 -22 -15
-26 -15 -58 3 -20 11 -42 18 -49 15 -7 -3 -16 -1 -19 4 -4 6 -18 7 -32 4 -19
-5 -30 -2 -39 11 -7 10 -20 15 -29 12 -9 -4 -15 -1 -15 8 0 8 -6 12 -14 9 -7
-3 -20 2 -29 10 -8 8 -25 13 -37 11 -12 -2 -29 2 -37 10 -11 11 -19 12 -34 5
-10 -6 -19 -7 -19 -2 0 5 -16 13 -35 19 -28 9 -37 8 -47 -4 -10 -13 -13 -12
-21 9 -8 22 -9 23 -23 4 -8 -11 -14 -14 -14 -8 0 14 -33 11 -53 -6 -12 -10
-16 -10 -21 3 -3 8 -15 15 -26 15 -11 0 -20 6 -20 13 0 8 -4 7 -10 -3 -8 -12
-11 -11 -16 8 -5 18 -9 21 -16 10 -8 -10 -11 -11 -15 0 -3 9 -9 10 -17 2 -9
-7 -18 -4 -31 10 -22 24 -35 26 -35 4 0 -8 -4 -13 -9 -10 -5 4 -11 0 -14 -6
-3 -10 -9 -8 -24 5 -23 20 -40 22 -46 5 -3 -9 -13 -5 -32 12 -20 17 -26 20
-22 8z m-4249 -4599 c-6 -11 -24 -2 -24 11 0 5 7 7 15 4 8 -4 12 -10 9 -15z
m860 -1625 c4 -19 36 -124 71 -232 150 -465 140 -377 140 -1237 0 -791 0 -792
-61 -974 -41 -124 -41 -158 6 -297 41 -119 50 -204 50 -453 l0 -217 -81 -139
c-359 -617 -377 -641 -554 -745 -49 -30 -98 -60 -107 -68 -17 -14 -50 -13
-118 3 -22 5 -21 4 4 -7 23 -11 26 -16 15 -25 -22 -17 -57 -25 -64 -13 -10 16
-38 12 -31 -5 4 -10 -1 -15 -17 -16 -19 -1 -18 -2 8 -14 30 -14 22 -19 -24
-15 -14 1 -21 -2 -17 -9 4 -6 16 -11 26 -11 10 0 22 -5 25 -10 3 -5 1 -10 -5
-10 -6 0 -8 -5 -5 -10 3 -6 -1 -13 -9 -16 -21 -8 -20 -24 1 -24 13 0 10 -7
-12 -30 -16 -17 -25 -30 -20 -30 5 0 4 -5 -3 -12 -18 -18 -15 -58 4 -58 11 0
14 -6 9 -20 -5 -14 -2 -20 10 -20 9 0 14 -4 11 -9 -4 -5 4 -7 16 -4 21 4 20 2
-7 -22 l-30 -27 31 16 c17 8 34 22 37 31 4 10 19 15 45 15 l38 0 38 -97 c71
-178 53 -255 -128 -548 -34 -56 -46 -86 -61 -160 -6 -27 -14 -16 -86 125 -114
222 -156 322 -184 449 -34 151 -52 195 -141 346 -130 222 -199 373 -426 940
-238 593 -304 813 -318 1050 -5 84 -21 215 -36 295 -48 255 -36 423 51 688 57
171 147 353 280 567 121 192 183 310 213 405 38 116 65 287 66 411 l1 116 205
6 c244 6 360 21 773 97 172 32 324 58 338 59 23 1 28 -4 33 -35z m-4844 -1998
c0 -2 -8 -10 -17 -17 -16 -13 -17 -12 -4 4 13 16 21 21 21 13z m5545 -326 c5
-31 3 -42 -4 -35 -14 14 -31 128 -30 200 l2 60 13 -90 c7 -49 16 -110 19 -135z
m4565 -225 c186 -35 340 -55 427 -55 l73 0 0 -62 c0 -97 37 -234 91 -341 12
-23 57 -97 101 -165 189 -293 263 -536 229 -752 -7 -41 -16 -138 -21 -215 -10
-164 -29 -244 -131 -549 -106 -317 -195 -549 -255 -669 -29 -59 -65 -145 -78
-191 -28 -99 -40 -123 -116 -235 -85 -128 -140 -248 -140 -308 0 -13 -7 -26
-17 -30 -10 -3 -25 -12 -35 -20 -15 -13 -17 -8 -24 64 -19 189 -5 245 82 319
l50 43 43 -21 c52 -26 66 -16 62 47 -1 25 3 45 8 45 6 0 8 7 5 15 -4 8 -2 15
4 15 6 0 7 11 3 27 -5 20 -17 30 -40 37 -19 6 -30 14 -27 22 3 7 1 14 -3 16
-17 6 -113 140 -131 183 -27 64 -59 251 -151 903 -11 77 -9 137 7 298 6 55 3
66 -29 130 -51 101 -59 137 -133 574 -59 347 -68 411 -68 530 -1 163 34 370
63 370 9 0 77 -12 151 -25z m-5890 -2134 c0 -5 -9 -7 -20 -4 -11 3 -20 7 -20
9 0 2 9 4 20 4 11 0 20 -4 20 -9z m-2235 -321 c-3 -5 -12 -10 -18 -10 -7 0 -6
4 3 10 19 12 23 12 15 0z m-45 -20 c-8 -5 -19 -10 -25 -10 -5 0 -3 5 5 10 8 5
20 10 25 10 6 0 3 -5 -5 -10z m1190 -13 c0 -2 -10 -12 -22 -23 l-23 -19 19 23
c18 21 26 27 26 19z m-1225 -57 c-10 -11 -21 -17 -24 -14 -3 3 3 12 13 20 28
20 32 17 11 -6z m1450 -75 c-16 -13 -31 -22 -34 -20 -8 8 32 45 48 45 11 -1 7
-8 -14 -25z m1645 -9 c0 -2 -7 -6 -15 -10 -8 -3 -15 -1 -15 4 0 6 7 10 15 10
8 0 15 -2 15 -4z m-2840 -54 c0 -5 -13 -18 -30 -30 -35 -26 -41 -10 -7 19 24
20 37 24 37 11z"/>
<path d="M2257 1153 c-4 -3 -7 -16 -6 -27 0 -19 1 -19 10 3 10 24 8 36 -4 24z"/>
<path d="M2286 1145 c-3 -9 -6 -22 -5 -28 0 -7 5 -1 10 12 5 13 8 26 5 28 -2
2 -6 -3 -10 -12z"/>
</g>
</svg>
