<?xml version="1.0" standalone="no"?>
<!DOCTYPE svg PUBLIC "-//W3C//DTD SVG 20010904//EN"
 "http://www.w3.org/TR/2001/REC-SVG-20010904/DTD/svg10.dtd">
<svg version="1.0" xmlns="http://www.w3.org/2000/svg"
 width="1280.000000pt" height="1280.000000pt" viewBox="0 0 1280.000000 1280.000000"
 preserveAspectRatio="xMidYMid meet">
<metadata>
Created by potrace 1.15, written by Peter Selinger 2001-2017
</metadata>
<g transform="translate(0.000000,1280.000000) scale(0.100000,-0.100000)"
fill="#302249" stroke="none">
<path d="M5810 12694 c-30 -8 -93 -33 -139 -55 -67 -33 -102 -59 -175 -133
-76 -75 -100 -106 -133 -176 -40 -82 -49 -108 -108 -306 -27 -89 -29 -92 -64
-102 -76 -23 -163 -85 -374 -266 -202 -174 -322 -356 -335 -511 -4 -50 -10
-67 -38 -99 -19 -22 -34 -44 -34 -50 0 -5 -7 -17 -16 -27 -47 -53 -143 -259
-164 -355 -10 -45 -20 -86 -24 -92 -6 -10 -26 -133 -31 -190 -1 -18 -5 -35 -8
-38 -3 -3 -3 -36 0 -74 4 -43 2 -70 -5 -74 -6 -4 -8 -14 -5 -23 4 -10 2 -14
-4 -10 -8 5 -13 -37 -17 -131 -4 -75 -11 -177 -16 -227 -11 -99 -4 -364 10
-408 5 -15 7 -34 4 -41 -3 -8 -1 -81 5 -162 11 -153 38 -287 65 -329 9 -14 16
-31 16 -40 0 -9 16 -33 36 -54 19 -22 41 -46 47 -54 26 -33 154 -120 241 -164
50 -25 123 -64 161 -87 163 -97 238 -122 387 -130 47 -2 92 -7 98 -11 7 -4 16
-2 20 6 7 10 16 10 44 2 19 -6 36 -7 38 -3 2 4 30 -1 62 -11 33 -11 61 -17 64
-15 2 3 -5 15 -17 27 -26 28 -22 33 13 19 35 -13 76 -13 76 0 0 11 -2 11 -38
15 -12 1 -26 6 -30 10 -4 5 2 5 13 1 14 -5 11 1 -10 19 -28 25 -23 26 22 8 11
-4 14 -3 9 6 -4 6 -35 24 -69 40 -62 28 -103 61 -77 61 8 0 22 -7 32 -17 10
-9 18 -12 18 -6 0 5 -9 18 -20 28 -11 10 -20 22 -20 27 0 11 28 -5 60 -34 56
-52 61 -47 7 7 -54 54 -54 60 -2 40 14 -6 12 -1 -8 14 -15 13 -24 27 -21 33 4
6 3 8 -3 5 -15 -9 -124 50 -167 91 -21 20 -49 54 -63 75 -13 22 -27 36 -30 33
-4 -3 1 -14 10 -24 10 -10 17 -22 17 -27 0 -5 -29 21 -65 56 -44 45 -78 92
-111 154 -26 50 -55 102 -66 118 -29 40 -160 318 -154 325 4 3 6 -1 6 -8 0 -7
3 -11 6 -8 3 4 -2 20 -10 37 -9 17 -17 34 -17 38 -1 5 -5 18 -10 31 -5 13 -9
30 -9 38 0 8 -5 12 -10 9 -6 -4 -10 -3 -8 2 1 4 -4 34 -11 67 -9 42 -10 61 -2
69 8 8 11 6 11 -6 0 -26 62 -144 68 -128 2 7 0 16 -5 20 -14 8 -44 69 -54 106
-4 17 -17 59 -28 95 l-20 65 21 -30 c12 -16 40 -47 62 -67 23 -20 57 -52 78
-70 28 -26 47 -61 88 -163 31 -78 74 -164 108 -215 64 -96 351 -395 522 -544
58 -50 145 -128 194 -174 97 -92 167 -132 234 -132 l42 0 0 -44 c0 -24 -3 -57
-6 -74 -6 -28 -10 -31 -73 -42 -36 -7 -95 -22 -131 -33 -66 -20 -168 -43 -430
-98 -85 -18 -170 -42 -205 -59 -82 -40 -182 -122 -289 -238 -160 -174 -220
-267 -326 -507 -73 -166 -120 -254 -168 -315 -20 -25 -116 -125 -213 -222 -97
-97 -236 -245 -307 -330 -171 -201 -461 -486 -642 -630 -184 -147 -440 -384
-496 -460 -105 -143 -130 -347 -70 -578 29 -113 47 -147 150 -278 139 -176
215 -217 411 -216 108 1 131 4 235 36 63 20 130 42 148 49 29 12 34 12 53 -8
l22 -21 -61 -119 c-210 -413 -361 -892 -403 -1278 -15 -142 -6 -395 19 -545
59 -347 199 -736 354 -987 29 -48 44 -84 49 -123 15 -119 49 -179 177 -315
l28 -30 -12 -115 c-39 -370 -64 -627 -70 -712 l-7 -98 2732 0 c2178 0 2731 3
2731 13 0 43 -23 270 -36 362 -33 234 -80 446 -170 773 -25 89 -63 239 -85
333 -33 143 -38 177 -29 207 15 55 12 103 -10 176 -39 125 -176 435 -227 513
-19 28 -59 109 -90 180 -72 168 -263 640 -263 652 0 5 43 32 96 61 191 102
266 160 489 386 87 87 178 168 240 212 139 98 162 124 222 243 52 103 53 106
84 314 41 279 44 336 25 560 -9 105 -20 289 -26 410 -11 226 -33 434 -50 480
-31 82 -53 269 -60 525 -5 146 -14 294 -20 330 -6 36 -15 241 -20 455 -9 421
-14 463 -70 645 -109 350 -258 512 -560 608 -108 34 -155 44 -362 72 -94 13
-218 40 -350 76 -231 64 -246 68 -383 84 -114 14 -126 22 -200 125 -99 138
-169 286 -252 534 -62 186 -63 199 -66 556 -1 219 -1 221 31 337 42 152 44
264 8 371 -18 54 -27 113 -35 227 -6 85 -19 202 -28 260 -14 96 -15 111 0 173
8 37 13 76 10 87 -3 12 2 29 12 40 10 11 15 26 12 34 -4 9 -1 18 5 22 6 4 8 3
4 -4 -3 -6 -2 -13 3 -16 15 -10 18 34 6 89 -6 28 -9 62 -5 75 3 14 6 76 5 139
l-1 114 36 39 c72 79 84 126 51 190 -10 20 -21 57 -24 82 -7 51 -51 146 -68
146 -5 0 -7 5 -4 10 3 6 1 10 -5 10 -6 0 -8 5 -4 12 4 6 3 8 -3 5 -6 -4 -30
16 -53 45 -45 53 -144 122 -292 202 -97 52 -257 118 -269 110 -5 -3 -35 0 -66
5 -32 6 -150 13 -263 15 -159 4 -217 2 -260 -10z m-318 -211 c-54 -68 -93
-108 -83 -87 10 22 99 124 108 124 2 0 -9 -17 -25 -37z m1513 -339 c25 -43 32
-74 16 -74 -5 0 -11 15 -15 32 -4 18 -20 49 -36 70 -17 20 -30 40 -30 44 0 15
41 -30 65 -72z m-3 -131 c-7 -36 -22 -27 -22 12 0 29 2 34 13 23 8 -6 11 -22
9 -35z m87 -40 c-1 -45 -1 -46 -10 -18 -8 27 -4 65 7 65 2 0 4 -21 3 -47z
m-1819 -8 c0 -8 -4 -15 -10 -15 -5 0 -7 7 -4 15 4 8 8 15 10 15 2 0 4 -7 4
-15z m-665 -586 c-9 -17 -19 -28 -22 -25 -6 6 23 56 32 56 3 0 -2 -14 -10 -31z
m-205 -450 c-12 -16 -25 -28 -27 -25 -8 8 25 56 38 56 6 0 1 -14 -11 -31z
m465 -1935 c9 -15 12 -23 6 -20 -11 7 -35 46 -28 46 3 0 12 -12 22 -26z m-450
-264 c13 -26 14 -29 0 -24 -8 4 -15 10 -15 14 0 5 -3 15 -6 24 -11 28 5 17 21
-14z m769 -109 c-7 -8 -72 64 -67 73 3 5 21 -9 38 -30 18 -22 31 -41 29 -43z"/>
<path d="M4152 10200 c0 -19 2 -27 5 -17 2 9 2 25 0 35 -3 9 -5 1 -5 -18z"/>
<path d="M4840 9307 c0 -10 50 -97 56 -97 5 0 -28 64 -45 90 -6 8 -11 11 -11
7z"/>
<path d="M4975 9039 c9 -17 19 -29 21 -26 7 7 -18 57 -28 57 -5 0 -1 -14 7
-31z"/>
</g>
</svg>
